<svg width="513" height="513" viewBox="0 0 513 513" fill="none" xmlns="http://www.w3.org/2000/svg">
<rect x="0.214844" y="0.827637" width="512" height="512" fill="black"/>
<path fill-rule="evenodd" clip-rule="evenodd" d="M221.287 92.167C221.287 88.4926 224.265 85.5139 227.94 85.5139H289.48C293.155 85.5139 296.134 88.4926 296.134 92.167V211.922C296.134 215.596 299.112 218.575 302.787 218.575H425.868C429.542 218.575 432.521 221.554 432.521 225.228V286.769C432.521 290.443 429.542 293.422 425.868 293.422H350.821C349.056 293.422 347.364 292.721 346.116 291.473L223.235 168.592C221.988 167.344 221.287 165.652 221.287 163.888V92.167ZM169.317 220.524C168.07 219.276 166.378 218.575 164.613 218.575H89.8889C86.2145 218.575 83.2358 221.554 83.2358 225.228L83.2358 286.769C83.2358 290.443 86.2145 293.422 89.8889 293.422H214.634C218.308 293.422 221.287 296.4 221.287 300.075V428.146C221.287 431.821 224.265 434.799 227.94 434.799H289.48C293.155 434.799 296.134 431.821 296.134 428.146V350.095C296.134 348.331 295.433 346.639 294.185 345.391L169.317 220.524Z" fill="white"/>
</svg>
